solid pyramid
  facet normal 0.000000 -0.600000 0.800000
    outer loop
      vertex -20.0 -20.0 0.0
      vertex 20.0 -20.0 0.0
      vertex 0.0 0.0 15.0
    endloop
  endfacet
  facet normal 0.600000 -0.000000 0.800000
    outer loop
      vertex 20.0 -20.0 0.0
      vertex 20.0 20.0 0.0
      vertex 0.0 0.0 15.0
    endloop
  endfacet
  facet normal 0.000000 0.600000 0.800000
    outer loop
      vertex 20.0 20.0 0.0
      vertex -20.0 20.0 0.0
      vertex 0.0 0.0 15.0
    endloop
  endfacet
  facet normal -0.600000 0.000000 0.800000
    outer loop
      vertex -20.0 20.0 0.0
      vertex -20.0 -20.0 0.0
      vertex 0.0 0.0 15.0
    endloop
  endfacet
  facet normal 0.000000 0.000000 -1.000000
    outer loop
      vertex -20.0 -20.0 0.0
      vertex 20.0 20.0 0.0
      vertex 20.0 -20.0 0.0
    endloop
  endfacet
  facet normal 0.000000 0.000000 -1.000000
    outer loop
      vertex -20.0 -20.0 0.0
      vertex -20.0 20.0 0.0
      vertex 20.0 20.0 0.0
    endloop
  endfacet
endsolid pyramid
